<svg xmlns="http://www.w3.org/2000/svg" width="20.773" height="18.112" viewBox="0 0 20.773 18.112">
    <defs>
        <style>
            .cls-1{fill:#cc1b69}.cls-2{fill:#fff}
        </style>
    </defs>
    <g id="ideal_1_" data-name="ideal (1)">
        <path id="Rectangle_839" d="M0 0h3.329v5.528H0z" data-name="Rectangle 839" transform="translate(2.31 10.195)"/>
        <circle id="Ellipse_390" cx="1.884" cy="1.884" r="1.884" data-name="Ellipse 390" transform="translate(2.12 5.548)"/>
        <path id="Path_27600" d="M103.085 88.47H91.142v18.112h11.943a9.435 9.435 0 0 0 6.142-1.931c1.784-1.518 2.688-3.913 2.688-7.121a11.054 11.054 0 0 0-.707-4.088 7.45 7.45 0 0 0-1.971-2.851 9.312 9.312 0 0 0-6.152-2.113zm-.226 1.2a8.243 8.243 0 0 1 5.579 1.813c1.509 1.341 2.274 3.374 2.274 6.039 0 5.284-2.569 7.853-7.853 7.853H92.345V89.673z" data-name="Path 27600" transform="translate(-91.142 -88.47)"/>
        <path id="Path_27601" d="M209.5 144.011h-4.22V130.95h4.052c3.521 0 7.269 1.39 7.269 6.547 0 5.453-3.748 6.514-7.269 6.514z" class="cls-1" data-name="Path 27601" transform="translate(-198.114 -128.283)"/>
        <g id="Group_2128" data-name="Group 2128" transform="translate(6.352 5.953)">
            <path id="Path_27602" d="M193.685 184.651h1.16a2.256 2.256 0 0 1 .6.06 1.055 1.055 0 0 1 .474.289 1.375 1.375 0 0 1 .3.509 2.324 2.324 0 0 1 .1.743 2.081 2.081 0 0 1-.1.669 1.391 1.391 0 0 1-.336.555 1.119 1.119 0 0 1-.445.251 1.931 1.931 0 0 1-.562.066h-1.194v-3.142zm.634.533v2.077h.475a1.736 1.736 0 0 0 .385-.03.582.582 0 0 0 .257-.13.663.663 0 0 0 .167-.3 2.027 2.027 0 0 0 .065-.574 1.865 1.865 0 0 0-.065-.558.717.717 0 0 0-.18-.3.6.6 0 0 0-.294-.148 2.9 2.9 0 0 0-.522-.03z" class="cls-2" data-name="Path 27602" transform="translate(-193.599 -184.565)"/>
            <path id="Path_27603" d="M192.315 183.278v3.315h1.28a2.018 2.018 0 0 0 .587-.07 1.2 1.2 0 0 0 .48-.271 1.475 1.475 0 0 0 .358-.589 2.167 2.167 0 0 0 .1-.7 2.412 2.412 0 0 0-.107-.77 1.475 1.475 0 0 0-.319-.541 1.14 1.14 0 0 0-.512-.313 2.32 2.32 0 0 0-.622-.064zm1.245.172a2.209 2.209 0 0 1 .574.056.972.972 0 0 1 .435.266 1.3 1.3 0 0 1 .281.478 2.255 2.255 0 0 1 .1.715 2 2 0 0 1-.091.641 1.309 1.309 0 0 1-.315.522 1.04 1.04 0 0 1-.412.231 1.847 1.847 0 0 1-.535.062h-1.108v-2.971z" class="cls-2" data-name="Path 27603" transform="translate(-192.315 -183.278)"/>
            <path id="Path_27604" d="M202.411 191.758v2.249h.561a1.8 1.8 0 0 0 .406-.032.678.678 0 0 0 .293-.15.738.738 0 0 0 .191-.341 2.1 2.1 0 0 0 .068-.6 1.928 1.928 0 0 0-.069-.585.8.8 0 0 0-.2-.339.689.689 0 0 0-.335-.169 2.9 2.9 0 0 0-.54-.032h-.372zm.372.172a2.709 2.709 0 0 1 .5.028.529.529 0 0 1 .254.126.641.641 0 0 1 .158.269 1.809 1.809 0 0 1 .06.531 1.966 1.966 0 0 1-.061.549.585.585 0 0 1-.142.264.5.5 0 0 1-.22.111 1.656 1.656 0 0 1-.363.028h-.389v-1.905z" class="cls-2" data-name="Path 27604" transform="translate(-201.777 -191.226)"/>
            <path id="Path_27605" d="M247.053 187.795v-3.143h2.326v.533h-1.693v.7h1.574v.533h-1.574v.848h1.753v.533h-2.386z" class="cls-2" data-name="Path 27605" transform="translate(-243.616 -184.566)"/>
            <path id="Path_27606" d="M245.68 183.278v3.315h2.559v-.7h-1.753v-.677h1.574v-.7h-1.574v-.524h1.693v-.7zm2.326.172v.361h-1.692v.868h1.574v.361h-1.574v1.021h1.752v.361h-2.214v-2.972z" class="cls-2" data-name="Path 27606" transform="translate(-242.329 -183.278)"/>
            <path id="Path_27607" d="M294.509 187.795h-.691l-.274-.714h-1.255l-.261.714h-.673l1.221-3.143h.675zm-1.168-1.246l-.433-1.165-.424 1.165z" class="cls-2" data-name="Path 27607" transform="translate(-285.137 -184.566)"/>
            <path id="Path_27608" d="M290.65 183.279l-1.288 3.315h.858l.26-.713h1.137l.274.713h.876l-1.325-3.315zm.676.172l1.188 2.971h-.5l-.274-.713h-1.38l-.26.713h-.488l1.154-2.971z" class="cls-2" data-name="Path 27608" transform="translate(-283.269 -183.279)"/>
            <path id="Path_27609" d="M307.359 193.855h1.1l-.557-1.5zm.548-1l.308.83h-.615z" class="cls-2" data-name="Path 27609" transform="translate(-300.136 -191.786)"/>
            <path id="Path_27610" d="M350.027 188.177v-3.117h.634v2.584h1.579v.533h-2.213z" class="cls-2" data-name="Path 27610" transform="translate(-340.125 -184.948)"/>
            <path id="Path_27611" d="M348.661 183.694v3.289h2.385v-.7h-1.579v-2.584zm.634.172v2.584h1.579v.361h-2.041v-2.945z" class="cls-2" data-name="Path 27611" transform="translate(-338.845 -183.668)"/>
        </g>
    </g>
</svg>
