<svg xmlns="http://www.w3.org/2000/svg" width="40.142" height="42.6" viewBox="0 0 40.142 42.6">
    <defs>
        <style>
            .cls-1{fill:#0090e3}
        </style>
    </defs>
    <g id="pdf" transform="translate(-14.769)">
        <g id="Group_3" data-name="Group 3" transform="translate(14.769)">
            <g id="Group_2" data-name="Group 2">
                <path id="Path_10" d="M54.682 11.528L43.829.251a.82.82 0 0 0-.59-.251H27.063a3.286 3.286 0 0 0-3.283 3.282v11.464h-6.555a2.459 2.459 0 0 0-2.456 2.454v12.294a2.459 2.459 0 0 0 2.456 2.455h6.555v7.374a3.283 3.283 0 0 0 3.283 3.277h24.565a3.282 3.282 0 0 0 3.283-3.274V12.1a.82.82 0 0 0-.229-.572zm-11.24-9.316l8.909 9.257h-8.909zm-26.216 28.1a.818.818 0 0 1-.818-.817V17.2a.818.818 0 0 1 .818-.817h22.121a.818.818 0 0 1 .818.817v12.294a.818.818 0 0 1-.818.817zm36.047 9.014a1.642 1.642 0 0 1-1.645 1.636H27.063a1.643 1.643 0 0 1-1.645-1.637V31.95h13.929a2.459 2.459 0 0 0 2.453-2.456V17.2a2.459 2.459 0 0 0-2.456-2.456H25.419V3.282a1.646 1.646 0 0 1 1.645-1.643H41.8v10.65a.819.819 0 0 0 .819.819h10.65z" class="cls-1" data-name="Path 10" transform="translate(-14.769)"/>
            </g>
        </g>
        <g id="Group_5" data-name="Group 5" transform="translate(19.58 19.997)">
            <g id="Group_4" data-name="Group 4">
                <path id="Path_11" d="M77.579 241.14a1.845 1.845 0 0 0-1.013-.689 8.274 8.274 0 0 0-1.69-.106H72.6v7.037h1.421v-2.654h.926a8.1 8.1 0 0 0 1.474-.1 2.059 2.059 0 0 0 .737-.334 1.929 1.929 0 0 0 .6-.694 2.3 2.3 0 0 0 .235-1.09 2.185 2.185 0 0 0-.414-1.37zm-1.217 1.937a.932.932 0 0 1-.444.346 3.672 3.672 0 0 1-1.123.11h-.778v-2h.683a6.821 6.821 0 0 1 1.022.048.982.982 0 0 1 .571.312.909.909 0 0 1 .226.634.946.946 0 0 1-.157.55z" class="cls-1" data-name="Path 11" transform="translate(-72.596 -240.346)"/>
            </g>
        </g>
        <g id="Group_7" data-name="Group 7" transform="translate(26.132 19.997)">
            <g id="Group_6" data-name="Group 6">
                <path id="Path_12" d="M157.015 242.268a3.075 3.075 0 0 0-.672-1.14 2.353 2.353 0 0 0-1.061-.648 5.071 5.071 0 0 0-1.339-.134h-2.6v7.037h2.674a4.3 4.3 0 0 0 1.258-.149 2.5 2.5 0 0 0 1-.562 3.1 3.1 0 0 0 .754-1.243 4.625 4.625 0 0 0 .216-1.5 5.193 5.193 0 0 0-.23-1.661zm-1.382 2.89a1.489 1.489 0 0 1-.372.679 1.311 1.311 0 0 1-.574.293 3.867 3.867 0 0 1-.859.067h-1.061v-4.661h.638a6.438 6.438 0 0 1 1.166.067 1.352 1.352 0 0 1 .658.331 1.61 1.61 0 0 1 .4.682 4.2 4.2 0 0 1 .144 1.253 4.589 4.589 0 0 1-.141 1.289z" class="cls-1" data-name="Path 12" transform="translate(-151.346 -240.346)"/>
            </g>
        </g>
        <g id="Group_9" data-name="Group 9" transform="translate(33.246 19.997)">
            <g id="Group_8" data-name="Group 8">
                <path id="Path_13" d="M241.67 241.536v-1.19h-4.824v7.037h1.421v-2.99h2.933V243.2h-2.938v-1.666z" class="cls-1" data-name="Path 13" transform="translate(-236.846 -240.346)"/>
            </g>
        </g>
    </g>
</svg>
